<?xml version="1.0" encoding="utf-8"?>
<!-- Generator: Adobe Illustrator 16.0.0, SVG Export Plug-In . SVG Version: 6.00 Build 0)  -->
<!DOCTYPE svg PUBLIC "-//W3C//DTD SVG 1.1//EN" "http://www.w3.org/Graphics/SVG/1.1/DTD/svg11.dtd">
<svg version="1.1" id="Capa_1" xmlns="http://www.w3.org/2000/svg" xmlns:xlink="http://www.w3.org/1999/xlink" x="0px" y="0px"
	 width="640.477px" height="630px" viewBox="0 0 640.477 630" enable-background="new 0 0 640.477 630" xml:space="preserve">
<g>
	<g>
		<g>
			<g>
				<g>
					<path d="M6.688,254.639l44.758,9.15l-2.135,10.178l-44.655-9.21L6.688,254.639z"/>
					<path d="M52.547,256.262l-43.266-14.43l3.783-11.393l18.899-3.739c5.401-1.045,11.688-1.872,17.252-2.117v-0.199
						c-5.963-1.282-11.851-3.052-18.301-5.168l-12.702-4.205l3.097-9.05l43.177,14.43l-3.303,10.318l-19.858,3.643
						c-5.461,1.107-12.008,2.068-17.83,2.475v0.152c5.874,1.67,11.97,3.597,19.018,5.914l13.07,4.403L52.547,256.262z"/>
					<path d="M58.37,208.698c2.564-1.833,5.697-4.965,7.772-8.859c2.113-4.259,1.47-7.437-1.145-8.767
						c-2.512-1.288-4.957-0.104-9.213,4.012c-5.747,5.513-11.726,7.991-17.672,4.951c-6.968-3.479-9.34-12.036-4.403-21.596
						c2.355-4.607,4.972-7.507,7.313-9.368l6.37,5.921c-1.611,1.16-4.257,3.498-6.222,7.385c-2.061,4.093-1.218,6.927,0.872,7.951
						c2.565,1.407,4.876-0.411,9.598-4.607c6.31-5.759,11.733-7.281,17.532-4.356c6.754,3.435,9.909,11.688,4.242,22.816
						c-2.372,4.669-5.903,8.6-8.416,10.343L58.37,208.698z"/>
					<path d="M58.644,154.541l-7.004,10.133l-7.078-4.865l19.831-28.952l7.226,4.961l-7.13,10.233l30.5,20.988l-5.917,8.552
						L58.644,154.541z"/>
					<path d="M77.07,116.246l34.792,29.495l-6.746,7.954l-34.717-29.558L77.07,116.246z"/>
					<path d="M97.529,107.038l-8.807,8.496l-6.036-6.225l25.253-24.345l6.015,6.178l-8.903,8.696l25.616,26.624l-7.47,7.245
						L97.529,107.038z"/>
					<path d="M124.459,72.167l15.235,21.346c4.565,6.375,9.324,7.991,13.646,4.92c4.382-3.151,4.559-7.954-0.073-14.578
						l-15.243-21.36l8.401-5.973l14.828,20.857c8.194,11.433,6.258,21.054-3.45,27.921c-9.346,6.635-18.5,5.413-27.011-6.425
						l-14.785-20.632L124.459,72.167z"/>
					<path d="M170.444,53.249l-10.949,5.501l-3.917-7.743l31.269-15.877l3.856,7.791l-11.045,5.611l16.706,32.909l-9.222,4.744
						L170.444,53.249z"/>
					<path d="M241.396,39.582c4.744,14.215-0.953,25.704-13.625,29.964c-12.789,4.241-23.568-2.901-27.698-15.25
						c-4.359-12.992,0.664-25.442,13.462-29.687C226.826,20.09,237.428,27.635,241.396,39.582z M210.349,50.66
						c2.815,8.453,8.807,13.06,15.383,10.928c6.568-2.275,8.261-9.768,5.475-18.213c-2.615-7.75-8.615-13.202-15.309-10.927
						C209.271,34.679,207.513,42.208,210.349,50.66z"/>
					<path d="M268.201,21.159l-12.125,1.559l-1.115-8.589l34.771-4.606l1.092,8.651l-12.314,1.565l4.809,36.685l-10.262,1.368
						L268.201,21.159z"/>
					<path d="M326.574,35.226l-16.851,0.359l0.207,10.824l18.717-0.352l0.196,8.515l-29.176,0.443l-0.701-45.593L327.13,8.96
						l0.089,8.452l-17.777,0.314l0.163,9.445l16.801-0.347L326.574,35.226z"/>
					<path d="M367.707,58.355c-1.964,0.757-6.259,1.167-11.852,0.395c-15.632-2.12-22.356-12.893-20.596-25.756
						c2.089-15.478,14.251-22.611,27.954-20.68c5.312,0.654,9.214,2.361,10.861,3.48l-3.191,7.843
						c-1.958-1.16-4.677-2.379-8.334-2.775c-8.114-1.174-15.088,2.875-16.462,12.946c-1.263,9.009,3.423,15.486,12.473,16.704
						c3.066,0.462,6.627,0.185,8.74-0.313L367.707,58.355z"/>
					<path d="M372.533,60.678l13.091-43.724l11.598,3.451l4.229,18.814c1.278,5.369,2.164,11.545,2.689,17.167h0.162
						c1.072-5.97,2.682-11.947,4.647-18.475l3.761-12.805l9.131,2.737l-13.12,43.714l-10.402-3.136l-4.249-19.742
						c-1.228-5.364-2.372-11.837-2.911-17.662h-0.289c-1.41,5.888-3.131,12.05-5.275,19.232l-3.953,13.106L372.533,60.678z"/>
					<path d="M463.02,71.957c-6.577,13.254-18.769,17.378-30.693,11.438c-12.117-6.109-14.682-18.819-8.858-30.356
						c6.147-12.286,18.493-17.502,30.589-11.488C466.602,47.774,468.699,60.63,463.02,71.957z M433.354,57.742
						c-4.012,7.954-3.001,15.482,3.103,18.534c6.222,3.077,12.849-1.083,16.758-8.911c3.627-7.396,3.229-15.45-3.131-18.685
						C443.905,45.643,437.277,49.751,433.354,57.742z"/>
					<path d="M482.98,58.603l8.498,5.911l-21.214,30.27l14.839,10.421l-4.959,7.141l-23.379-16.394L482.98,58.603z"/>
					<path d="M528.323,124.78c-10.23,10.942-23.056,11.341-32.789,2.343c-9.916-9.263-8.763-22.169,0.074-31.626
						c9.384-10.023,22.674-11.588,32.581-2.379C538.416,102.674,536.931,115.534,528.323,124.78z M503.796,102.722
						c-6.126,6.587-7.345,14.032-2.264,18.679c5.046,4.81,12.494,2.685,18.517-3.787c5.629-6.037,7.571-13.82,2.341-18.685
						C517.307,94.123,509.779,96.202,503.796,102.722z M543.498,93.579l-11.725,0.5l-6.044-5.616l9.827-2.238L543.498,93.579z"/>
					<path d="M540.367,174.682c-2.845-1.866-7.646-5.763-11.325-10.58c-5.005-6.562-7.027-12.638-6.347-18.423
						c0.546-5.796,3.905-11.127,9.255-15.172c12.146-9.213,25.714-5.726,34.823,6.273c3.536,4.669,5.348,8.962,5.882,11.393
						l-7.915,3.292c-0.635-2.687-1.817-5.723-4.854-9.631c-5.274-6.868-13.019-9.047-20.939-3.075
						c-7.521,5.727-8.318,13.754-3.139,20.488c1.389,1.88,2.823,3.25,3.56,3.635l7.692-5.795l-4.382-5.583l6.428-4.85l10.3,13.455
						L540.367,174.682z"/>
					<path d="M586.301,167.648l-39.24,23.288l-5.274-8.862l39.178-23.314L586.301,167.648z"/>
					<path d="M566.202,227.508c-1.542-1.411-4.283-4.846-6.642-9.859c-6.553-14.373-0.976-25.815,10.875-31.179
						c14.163-6.472,26.614,0,32.384,12.561c2.216,4.913,2.914,8.958,2.788,11.075l-8.334,1.466c-0.031-2.328-0.547-5.264-2.041-8.6
						c-3.413-7.392-10.557-11.174-19.767-6.934c-8.295,3.801-11.328,11.083-7.466,19.431c1.286,2.89,3.337,5.764,4.948,7.249
						L566.202,227.508z"/>
					<path d="M600.065,264.695c-14.371,4.115-25.574-2.162-29.232-15.072c-3.662-12.945,3.933-23.326,16.479-26.961
						c13.152-3.743,25.446,1.92,29.053,14.924C620.228,251.092,612.181,261.262,600.065,264.695z M590.525,233.131
						c-8.658,2.438-13.522,8.242-11.702,14.826c1.93,6.733,9.384,8.748,17.952,6.372c7.869-2.313,13.567-7.888,11.602-14.824
						C606.478,232.833,599.023,230.804,590.525,233.131z"/>
				</g>
				<g>
					<path d="M17.52,366.05c-0.48,2.118-0.916,5.37-0.199,8.355c0.731,3.332,2.49,4.743,4.581,4.344
						c1.943-0.457,2.786-2.23,3.332-6.325c0.68-5.674,2.846-9.817,7.448-10.778c5.431-1.221,10.573,2.386,12.228,9.863
						c0.738,3.634,0.59,6.376,0.164,8.452l-6.185-0.252c0.392-1.417,0.76-3.9,0.119-6.981c-0.703-3.079-2.438-4.301-4.152-3.893
						c-2.024,0.354-2.527,2.319-3.169,6.78c-0.769,6.059-3.133,9.354-7.67,10.314c-5.297,1.213-10.75-1.868-12.62-10.668
						c-0.894-3.547-0.716-7.402-0.125-9.428L17.52,366.05z"/>
					<path d="M49.659,391.804l-17.901,5.668c-5.298,1.729-7.396,4.67-6.192,8.2c1.116,3.695,4.323,4.92,9.901,3.186l17.879-5.713
						l2.165,6.97l-17.399,5.576c-9.531,3.09-15.716-0.264-18.301-8.452c-2.49-7.748,0.354-13.816,10.254-16.964l17.327-5.503
						L49.659,391.804z"/>
					<path d="M57.011,415.233c1.285,1.973,2.732,4.802,4.491,8.909c1.767,4.234,2.194,7.479,1.397,10.204
						c-0.664,2.594-2.63,4.913-5.593,6.141c-2.94,1.212-5.829,1.313-8.29,0.25c-3.17-1.411-5.556-4.462-7.174-8.452
						c-0.414-0.96-0.731-1.824-0.946-2.438l-10.713,4.565l-2.83-6.737L57.011,415.233z M46.165,427.676
						c0.125,0.665,0.406,1.359,0.753,2.341c1.567,3.629,4.33,5.149,7.448,3.784c2.733-1.108,3.583-3.784,2.114-7.181
						c-0.547-1.383-1.072-2.226-1.42-2.639L46.165,427.676z"/>
					<path d="M60.291,465.872l-5.497-10.667l-6.901,3.537l6.199,11.852l-5.364,2.786l-9.619-18.367l29.021-15.034l9.207,17.908
						l-5.349,2.682l-5.823-11.217l-6.022,3.119l5.475,10.579L60.291,465.872z"/>
					<path d="M79.265,462.142c1.588,1.76,3.694,4.604,5.77,7.942c2.615,4.012,3.887,7.292,3.487,10.211
						c-0.229,2.482-1.64,4.678-4.211,6.28c-3.458,2.128-7.499,1.218-9.833-0.643l-0.053,0.08c0.4,2.396-0.819,4.669-2.807,6.999
						c-2.667,2.771-5.734,5.908-6.398,7.128l-4.034-6.427c0.444-0.917,2.313-3,5.254-5.92c2.911-2.931,3.103-4.704,1.499-7.285
						l-1.101-1.867l-10.905,6.825l-3.856-6.115L79.265,462.142z M71.271,475.795l1.639,2.476c1.914,3.052,4.575,3.901,6.945,2.438
						c2.615-1.624,2.756-4.211,1.05-7.04c-1.05-1.472-1.641-2.268-2.018-2.689L71.271,475.795z"/>
					<path d="M99.206,491.083l-26.191,19.38l-4.485-5.963l26.288-19.433L99.206,491.083z"/>
					<path d="M109.926,528.482c-7.987,7.019-17.155,6.428-23.421-0.709c-6.458-7.24-4.706-16.291,2.284-22.417
						c7.292-6.486,16.882-6.68,23.272,0.547C118.712,513.446,116.701,522.462,109.926,528.482z M94.071,511.075
						c-4.803,4.188-6.177,9.419-2.933,13.106c3.333,3.694,8.734,2.771,13.491-1.41c4.403-3.85,6.338-9.325,2.985-13.174
						C104.274,505.903,98.799,506.878,94.071,511.075z"/>
					<path d="M124.142,520.385c2.091,1.256,4.928,3.397,7.817,6.015c3.635,3.191,5.726,5.984,6.221,8.903
						c0.451,2.482-0.302,4.868-2.261,7.085c-2.763,3.147-6.893,3.347-9.686,2.187l-0.125,0.102c1.145,2.232,0.62,4.641-0.792,7.435
						c-1.602,3.487-3.664,7.295-4.042,8.703l-5.666-5.009c0.192-1.072,1.412-3.599,3.332-7.292c2.092-3.494,1.745-5.305-0.398-7.322
						l-1.722-1.536l-8.482,9.662l-5.481-4.845L124.142,520.385z M120.367,535.768l2.127,1.834c2.785,2.473,5.659,2.569,7.543,0.391
						c1.921-2.225,1.47-4.662-1.064-6.925c-1.323-1.211-2.245-1.735-2.615-2.083L120.367,535.768z"/>
					<path d="M152.122,543.857c2.564,1.064,5.629,2.742,8.762,4.655c5.306,3.303,8.09,6.478,9.458,10.084
						c1.545,3.989,1.22,8.481-1.787,13.351c-3.362,5.307-7.493,7.744-11.571,8.283c-4.411,0.636-9.59-0.997-15.02-4.388
						c-3.229-1.981-5.372-3.644-6.849-4.855L152.122,543.857z M144.26,570.329c0.524,0.445,1.285,1.006,2.113,1.522
						c5.652,3.488,11.223,2.72,15.405-3.841c3.613-5.734,2.142-10.831-3.156-14.187c-1.425-0.857-2.445-1.366-3.044-1.618
						L144.26,570.329z"/>
					<path d="M189.491,585.402l-10.838-5.172l-3.332,6.989l12.146,5.778l-2.512,5.363l-18.892-8.748l13.838-29.501l18.25,8.495
						l-2.616,5.521l-11.518-5.409l-2.837,6.104l10.824,5.113L189.491,585.402z"/>
					<path d="M231.71,600.639c0.886-3.799,2.017-8.439,3.31-12.961l-0.156-0.045c-2.186,3.746-4.706,7.856-6.944,11.187
						l-7.211,11.128l-5.527-1.522v-13.048c0.052-3.998,0.2-8.755,0.665-13.159h-0.022c-1.448,4.189-2.963,9.065-4.255,12.909
						l-3.953,11.687l-6.604-1.877l10.853-30.809l9.508,2.727l0.104,11.326c-0.104,3.902-0.228,8.156-0.523,12.013h0.073
						c1.951-3.391,4.182-7.255,6.199-10.447l6.302-9.516l9.229,2.646l-7.115,31.882l-6.864-1.974L231.71,600.639z"/>
					<path d="M252.367,608.941l-3.584,7.936l-7.521-1.115l14.813-30.758l9.539,1.507l5.031,33.707l-7.794-1.211l-1.271-8.698
						L252.367,608.941z M261.352,604.783l-0.917-7.175c-0.295-2.023-0.494-4.508-0.694-6.488h-0.052
						c-0.828,1.878-1.692,4.257-2.512,5.972l-2.918,6.59L261.352,604.783z"/>
					<path d="M278.854,588.602c2.371-0.273,5.874-0.318,9.813-0.111c4.875,0.267,8.142,1.234,10.299,3.237
						c1.898,1.626,2.844,3.989,2.637,6.988c-0.303,4.094-3.384,6.777-6.267,7.647v0.146c2.239,1.043,3.356,3.342,3.961,6.318
						c0.821,3.746,1.566,8.054,2.106,9.413l-7.581-0.487c-0.407-0.975-1.005-3.663-1.699-7.758c-0.622-4.094-1.923-5.32-4.98-5.497
						l-2.239-0.119l-0.79,12.708l-7.3-0.414L278.854,588.602z M285.283,603.067l2.859,0.098c3.664,0.265,5.948-1.463,6.103-4.258
						c0.222-3.043-1.72-4.64-5.105-4.854c-1.817-0.147-2.786-0.096-3.311,0L285.283,603.067z"/>
					<path d="M312.893,595.717l-8.769,0.213l-0.208-6.205l25.12-0.472l0.081,6.169l-8.888,0.163l0.524,26.412l-7.426,0.148
						L312.893,595.717z"/>
					<path d="M343.836,580.556l-5.585,6.369l-5.906,0.295l3.668-6.161L343.836,580.556z M339.669,588.49l2.143,32.598l-7.411,0.443
						l-2.056-32.48L339.669,588.49z"/>
					<path d="M349.511,620.674l-4.286-32.346l8.607-1.152l8.192,10.979c2.44,3.192,4.877,6.99,6.819,10.375h0.082
						c-1.005-4.258-1.729-8.499-2.371-13.402l-1.264-9.43l6.761-0.888l4.188,32.363l-7.64,1.035l-8.54-11.659
						c-2.363-3.119-5.002-7.035-7.093-10.619l-0.155,0.053c0.723,4.211,1.425,8.801,2.121,14.068l1.336,9.716L349.511,620.674z"/>
					<path d="M400.291,597.756l-11.726,2.683l1.735,7.528l13.018-3.03l1.376,5.972l-20.318,4.601l-7.242-31.79l19.596-4.485
						l1.344,5.821l-12.345,2.927l1.535,6.583l11.602-2.639L400.291,597.756z"/>
					<path d="M408.202,605.898l7.671-26.112l-0.053-0.19l-13.408,4.499l-1.923-5.823l22.477-7.432l1.301,4.043l-7.374,25.658v0.149
						l14.688-4.826l1.891,5.786l-24.101,8.045L408.202,605.898z"/>
					<path d="M435.009,566.422c2.222-1.664,5.259-3.436,8.57-5.202c5.497-2.784,9.53-3.643,13.478-2.977
						c4.122,0.694,7.858,3.213,10.497,8.393c2.84,5.563,2.765,10.472,1.146,14.23c-1.75,4.078-5.734,7.735-11.401,10.66
						c-3.368,1.725-5.88,2.741-7.615,3.384L435.009,566.422z M453.738,586.674c0.598-0.098,1.493-0.606,2.355-0.977
						c5.966-3.132,8.142-8.288,4.61-15.323c-3.111-5.926-8.236-7.335-13.837-4.447c-1.469,0.709-2.396,1.419-2.867,1.773
						L453.738,586.674z"/>
					<path d="M489.809,555.598l-9.99,6.73l4.389,6.391l11.119-7.55l3.312,5.009l-17.192,11.629l-18.17-26.967l16.543-11.274
						l3.397,5.009l-10.505,7.175l3.798,5.578l9.886-6.783L489.809,555.598z"/>
					<path d="M490.649,531.067l5.475-4.972l17.703,19.526l9.659-8.598l4.034,4.602l-15.09,13.616L490.649,531.067z"/>
					<path d="M531.234,525.482l4.759,7.396l-5.157,5.613l-17.705-29.087l6.496-7.233l31.04,14.202l-5.298,5.873l-7.965-3.687
						L531.234,525.482z M532.623,515.672l-6.545-3.082c-1.817-0.864-3.991-2.031-5.75-2.875v0.038
						c1.094,1.618,2.564,3.658,3.634,5.313l3.874,6.022L532.623,515.672z"/>
					<path d="M541.164,484.402l-4.853,7.183l-5.157-3.442l14.035-20.785l5.131,3.474l-5.003,7.409l21.854,14.771l-4.13,6.161
						L541.164,484.402z"/>
					<path d="M574.195,447.719c9.438,5.165,12.031,13.913,7.441,22.262c-4.634,8.505-13.763,9.975-21.95,5.453
						c-8.496-4.641-11.931-13.639-7.395-22.055C557.177,444.623,566.375,443.413,574.195,447.719z M563.347,468.563
						c5.593,3.044,11.018,2.579,13.341-1.766c2.437-4.308-0.377-9.146-5.977-12.155c-5.149-2.82-10.855-2.777-13.343,1.73
						C555.048,460.716,557.767,465.577,563.347,468.563z"/>
					<path d="M561.994,436.882c0.531-2.366,1.698-5.756,3.166-9.34c1.937-4.464,3.934-7.299,6.525-8.659
						c2.216-1.212,4.708-1.271,7.438-0.103c3.837,1.669,5.277,5.467,5.18,8.438l0.098,0.044c1.698-1.744,4.263-2.067,7.366-1.662
						c3.732,0.509,8.069,1.323,9.436,1.175l-2.985,6.929c-0.976,0.098-3.709-0.147-7.818-0.908
						c-4.099-0.761-5.652,0.045-6.819,2.875l-0.901,2.022l11.83,5.071l-2.934,6.618L561.994,436.882z M577.751,435.617l1.154-2.726
						c1.44-3.34,0.591-6.074-2.024-7.145c-2.788-1.205-4.954,0.052-6.371,3.198c-0.59,1.671-0.898,2.623-1.019,3.133
						L577.751,435.617z"/>
					<path d="M572.655,411.333c0.324-2.424,1.166-5.824,2.429-9.562c1.445-4.662,3.217-7.588,5.669-9.267
						c2-1.313,4.544-1.624,7.424-0.701c3.894,1.351,5.717,5.004,5.782,7.944h0.126c1.62-1.768,4.062-2.322,7.192-2.189
						c3.791,0.209,8.224,0.623,9.609,0.422l-2.436,7.13c-1.026,0.257-3.76,0.097-7.87-0.147c-4.173-0.443-5.672,0.495-6.622,3.348
						l-0.697,2.111l12.204,3.955l-2.298,6.975L572.655,411.333z M588.207,408.763l0.93-2.78c1.139-3.448,0.118-6.133-2.644-7.064
						c-2.859-0.886-4.951,0.572-6.021,3.799c-0.555,1.64-0.748,2.69-0.821,3.206L588.207,408.763z"/>
					<path d="M603.168,370.252l-2.587,11.688l7.521,1.716l2.98-13.064l5.87,1.375l-4.638,20.237l-31.771-7.329l4.529-19.647
						l5.911,1.478l-2.875,12.34l6.62,1.521l2.669-11.688L603.168,370.252z"/>
				</g>
			</g>
			<g>
				<path fill-rule="evenodd" clip-rule="evenodd" fill="#0071B2" d="M174.442,279.149c0,0-67.619,15.077-67.973,24.534
					c-0.377,9.51,18.877,28.844,128.669,35.729c109.77,6.842-103.652,3.029-150.768-23.72
					C37.321,288.865,174.442,279.149,174.442,279.149z"/>
				<path fill-rule="evenodd" clip-rule="evenodd" fill="#0071B2" d="M453.923,281.37c0,0,79.966,11.808,67.833,32.762
					c-12.169,20.863-131.276,25.991-131.276,25.991s116.084,2.112,153.012-22.269C580.428,293.473,462.436,281.927,453.923,281.37z"
					/>
				<g>
					<g>
						<path fill-rule="evenodd" clip-rule="evenodd" fill="#013F1F" d="M234.421,377.176c-0.752,0.591-1.286,1.101-1.833,1.454
							c-16.535,11.615-33.026,23.223-49.533,34.934c-1.676,1.211-3.449,2.408-5.076,3.819c-2.239,2.062-4.063,4.484-4.995,7.396
							c-1.448,4.271-0.878,8.378,1.006,12.251c1.958,4.278,4.765,7.897,8.4,10.815c3.909,3.275,8.016,6.397,12.05,9.503
							c3.383,2.571,6.841,5.024,10.234,7.482c2.748,1.818,5.444,3.525,8.783,4.176c4.3,0.812,8.099,0,11.584-2.858
							c2.284-1.825,3.939-4.189,5.328-6.745c5.585-10.862,11.149-21.605,16.683-32.415c5.792-11.207,11.623-22.46,17.437-33.683
							c0.598-1.094,1.264-2.298,1.958-3.458c0.59-0.805,1.374-1.213,2.297-0.96c2.764,0.768,5.393,1.455,8.054,2.217
							c1.351,0.457,1.632,1.358,1.072,2.711c-1.346,2.46-2.624,4.869-3.858,7.483c-9.892,18.693-19.883,37.646-29.849,56.448
							c-1.182,2.26-2.35,4.581-3.391,6.841c-3.332,6.977-2.547,13.418,2.106,19.551c2.032,2.571,4.396,4.521,7.669,5.563
							c12.538,4.042,25.223,7.447,38.25,9.199c8.379,1.168,13.01-3.341,15.183-8.837c1.536-3.806,2.143-7.935,2.143-12.058
							c0-3.871,0-7.794-0.111-11.763c-0.229-14.511-0.496-28.954-0.739-43.482c-0.155-8.148-0.258-16.291-0.258-24.483
							c-0.089-3.465,0.502-3.998,4.003-4.049c1.931,0,3.842,0,5.72,0c0.74,0.051,1.485,0.23,2.402,0.378
							c0.022,1.011,0.244,1.876,0.244,2.665c0,5.58-0.111,11.225-0.222,16.757c-0.076,20.4-0.275,40.866-0.474,61.303
							c0,2.985,0.199,5.926,0.769,8.896c0.59,3.28,1.921,6.19,4.058,8.712c2.498,3.161,5.68,4.934,9.646,5.584
							c1.605,0.288,3.303,0.547,5.011,0.496c5.815-0.243,11.748-0.605,17.386-2.608c1.61-0.51,3.346-0.51,4.921-1.063
							c4.928-1.677,9.869-3.325,14.783-5.223c1.625-0.504,3.14-1.369,4.508-2.21c5.111-3.436,7.417-8.105,6.944-14.274
							c-0.296-3.621-1.249-6.99-2.881-10.219c-1.731-3.162-3.451-6.281-5.054-9.441c-2.794-5.232-5.52-10.404-8.231-15.738
							c-6.354-11.852-12.561-23.863-18.863-35.796c-1.239-2.358-2.584-4.861-3.922-7.375c-0.142-0.301-0.298-0.611-0.436-0.842
							c-0.585-1.56-0.422-3.331,1.978-3.67c1.825-0.365,3.695-0.859,5.535-1.317c2.948-0.753,4.063-0.354,5.43,2.32
							c3.29,6.428,6.52,12.753,9.68,19.092c3.709,7.389,7.241,14.924,11.18,22.172c3.656,7.129,6.923,14.46,10.622,21.515
							c1.301,2.563,2.56,4.862,4.036,7.277c0.702,1.309,1.676,2.427,2.637,3.533c4.779,5.674,12.523,5.955,17.962,2.962
							c9.102-5.091,17.237-11.465,24.494-19.01c2.436-2.557,4.787-5.224,7.187-7.927c1.684-1.974,3.088-4.146,3.912-6.6
							c1.592-4.626,0.804-8.999-1.88-13.115c-2.187-3.323-5.21-6.094-8.498-8.399c-7.112-5.024-14.258-9.997-21.321-15.028
							c-9.141-6.472-18.154-12.899-27.228-19.402c-0.621-0.5-1.174-1.048-1.779-1.61c0.479-0.457,0.784-0.754,1.079-1.005
							c3.028-1.402,5.984-2.956,9.036-4.514c1.276-0.762,2.37-0.494,3.627,0.391c3.48,2.721,7.042,5.047,10.559,7.699
							c7.86,5.684,15.633,11.416,23.494,17.18c3.678,2.665,7.396,5.393,10.981,8.148c2.187,1.61,4.542,2.866,7.04,3.826
							c5.487,1.952,10.564,1.006,15.141-2.414c2.694-2.018,4.666-4.53,6.094-7.442c1.409-2.97,2.705-5.88,3.832-9.042
							c2.382-6.887,4.856-13.832,6.961-20.865c1.558-4.936,2.669-9.96,3.865-14.916c0.11-0.349,0.229-0.865,0.311-1.31
							c0.39-1.816,1.594-2.881,3.406-3.176c0.893-0.2,1.801-0.295,2.62-0.539c1.384-0.258,2.831-0.672,4.212-0.908
							c2.489-0.563,5.031-0.961,7.662-1.271c1.337-0.149,2.269,0.812,2.119,2.369c-0.138,1.303-0.516,2.608-0.782,3.925
							c-1.15,5.224-2.148,10.396-3.427,15.679c-0.688,2.747-1.737,5.467-2.702,8.274c-0.846,2.481-1.738,4.787-2.434,7.24
							c-0.437,1.168-0.472,2.424-0.539,3.68c-0.126,1.817,0.473,3.28,2.053,4.529c3.081,2.355,5.955,5.142,8.928,7.631
							c6.034,5.187,12.086,10.565,18.352,15.591c2.857,2.195,2.857,6.694,1.228,9.383c-3.586,6.09-7.072,12.324-10.634,18.515
							c-1.699,2.867-3.309,5.779-4.964,8.689c-0.127,0.104-0.146,0.162-0.275,0.206c-2.305,3.475-3.978,4.005-7.941,2.765
							c-3.629-1.212-7.115-2.527-10.749-3.702c-7.473-2.683-14.887-5.356-22.364-7.958c-0.774-0.265-1.439-0.458-2.269-0.553
							c-1.758-0.259-3.316,0.095-4.641,1.469c-1.609,1.686-3.186,3.303-4.735,5.173c-5.896,7.182-12.633,13.47-19.579,19.588
							c-1.108,0.952-2.049,2.016-3.213,2.918c-1.338,1.018-1.798,2.268-1.679,3.774c0.074,1.396,0.264,2.711,0.656,3.968
							c0.873,2.763,1.907,5.438,2.935,8.245c0.856,2.217,1.632,4.516,2.513,6.796c1.427,4.065,2.917,8.232,4.337,12.296
							c0.74,2.126,1.327,4.278,2.113,6.443c0.767,2.098-0.119,4.92-2.552,6.531c-3.709,2.563-7.785,4.329-11.524,6.678
							c-4.934,3.029-9.979,5.941-14.895,8.94c-0.872,0.459-1.92,0.77-2.703,1.285c-2.218,1.494-4.302,0.945-6.186-0.473
							c-0.856-0.599-1.685-1.256-2.261-2.054c-4.004-4.772-7.95-9.663-11.954-14.377c-3.509-4.154-7.146-8.291-10.669-12.369
							c-2.113-2.467-4.515-3.013-7.551-1.847c-1.729,0.599-3.34,1.241-4.966,1.847c-4.38,1.723-8.881,2.911-13.403,4.078
							c-4.232,1.004-8.466,2.054-12.664,3.066c-1.041,0.252-2.053,0.252-2.996,0.496c-1.067,0.259-2.108,0.724-3.156,1.107
							c-1.787,0.71-2.747,2.068-3.126,4.033c-1.086,6.059-2.467,12.162-3.605,18.235c-0.82,4.574-1.412,9.103-2.171,13.669
							c-0.283,1.603-0.747,3.221-1.116,4.875c-0.533,2.617-2.322,3.977-4.848,4.331c-0.909,0.251-1.833,0.251-2.63,0.251
							c-10.159,0-20.348,0-30.506,0c-0.651,0-1.351,0-1.951-0.214c-2.201-0.349-3.834-1.359-4.426-3.555
							c-0.493-1.818-0.842-3.724-1.085-5.48c-0.48-2.115-0.858-4.28-1.212-6.243c-0.924-5.07-1.928-10.138-2.822-15.17
							c-0.325-1.507-0.637-3.015-0.858-4.641c-0.377-2.142-0.753-4.313-1.101-6.575c-0.191-1.389-0.805-2.513-2.275-3.016
							c-1.331-0.501-2.615-1.202-4.1-1.507c-4.848-1.166-9.768-2.258-14.608-3.375c-3.302-0.79-6.731-1.596-10.07-2.645
							c-2.771-0.916-5.541-2.165-8.356-3.223c-1.168-0.347-2.379-0.648-3.561-0.863c-1.714-0.148-3.221,0.303-4.381,1.758
							c-1.67,2.126-3.577,4.034-5.335,5.984c-2.357,2.867-4.602,5.88-7.084,8.444c-3.525,3.629-6.147,7.897-9.857,11.371
							c-0.592,0.601-1.035,1.464-1.611,2.04c-0.835,0.872-1.788,1.729-2.771,2.38c-1.204,0.798-2.593,0.798-3.877,0.096
							c-1.81-0.858-3.644-1.723-5.313-2.712c-4.5-2.571-8.91-5.068-13.313-7.699c-3.768-2.216-7.529-4.367-11.193-6.68
							c-0.813-0.354-1.53-0.96-2.143-1.61c-1.418-1.499-1.81-3.42-1.124-5.261c0.842-2.319,1.854-4.581,2.749-6.798
							c0.274-0.9,0.518-1.772,0.783-2.557c1.278-3.824,2.231-7.757,3.841-11.413c1.774-4.072,3.022-8.401,4.529-12.566
							c0.2-0.507,0.348-1.11,0.525-1.567c1.144-2.97,0.186-5.232-1.936-7.183c-2.306-2.18-4.61-4.366-7.041-6.278
							c-4.137-3.415-7.801-7.243-11.355-11.364c-2.253-2.557-4.515-5.276-6.73-7.832c-0.813-0.872-1.803-1.716-2.816-2.366
							c-0.798-0.456-1.678-0.655-2.534-0.655c-1.226,0-2.512,0.095-3.628,0.553c-5.667,1.95-11.356,4.123-16.965,6.162
							c-1.662,0.577-3.382,1.168-5.038,1.729c-3.82,1.241-7.551,2.673-11.356,3.916c-3.206,1.093-4.743,0.658-6.649-2.046
							c-1.197-1.626-2.328-3.275-3.281-5.033c-2.778-4.993-5.638-9.959-8.371-14.924c-1.427-2.675-3.134-5.039-4.522-7.684
							c-0.414-0.681-0.791-1.374-1.116-2.075c-1.175-2.623-0.96-5.032,1.233-6.938c3.303-2.92,6.509-5.732,9.826-8.602
							c3.208-2.808,6.459-5.527,9.62-8.393c2.549-2.157,5.114-4.572,7.885-6.664c2.91-2.23,3.538-4.743,2.194-8.247
							c-1.61-4.379-2.962-8.865-4.315-13.327c-0.85-2.977-1.508-6.088-2.253-9.059c-0.474-1.817-0.961-3.473-1.309-5.209
							c-0.546-2.638-1.123-5.253-1.589-7.905c-0.169-1.19,0.466-1.914,1.737-2.002c0.982-0.06,2.01-0.11,3.015,0.192
							c3.435,0.945,6.952,1.255,10.455,1.759c0.398,0.051,0.724,0.104,0.997,0.104c2.098,0.206,3.14,1.402,3.627,3.457
							c0.857,3.644,1.64,7.298,2.77,10.972c1.751,5.874,3.554,11.658,5.683,17.48c1.707,4.921,3.841,9.702,5.814,14.577
							c0.673,1.457,1.337,3.119,2.225,4.537c1.115,1.854,2.357,3.754,3.922,5.32c4.094,4.47,9.214,5.688,14.955,3.532
							c2.17-0.813,4.24-1.967,6.154-3.274c8.526-6.146,16.979-12.331,25.49-18.463c6.952-5.024,13.928-10.049,20.844-15.021
							c0.672-0.54,1.292-0.998,1.979-1.265c1.345-0.709,2.918-0.857,4.204-0.096C228.732,372.942,231.532,374.716,234.421,377.176z"
							/>
						<path fill-rule="evenodd" clip-rule="evenodd" fill="#819A19" d="M323.422,398.389l1.276,74.386
							c0,0-2.612,17.436,11.179,15.071c13.81-2.35,35.385-8.585,35.385-8.585s8.334-2.785,2.632-13.528
							c-5.765-10.655-34.919-69.164-34.919-69.164L323.422,398.389z"/>
						<path fill-rule="evenodd" clip-rule="evenodd" fill="#819A19" d="M297.695,399.702v77.246c0,0,1.809,12.428-9.671,11.061
							c-11.497-1.167-35.591-7.388-35.591-7.388s-9.952-3.474-2.896-16.138c7.004-12.81,33.573-66.783,33.573-66.783
							L297.695,399.702z"/>
						<path fill-rule="evenodd" clip-rule="evenodd" fill="#819A19" d="M254.969,393.215l-29.37,59.56
							c0,0-4.433,10.912-13.462,4.675c-9.146-6.242-29.48-25.223-29.48-25.223s-5.726-7.5,4.67-13.535
							c10.425-5.971,49.723-34.63,49.723-34.63L254.969,393.215z"/>
						<path fill-rule="evenodd" clip-rule="evenodd" fill="#819A19" d="M365.527,391.664l32.244,64.221
							c0,0,4.448,11.096,13.793,3.518c9.348-7.729,28.364-26.629,28.364-26.629s7.27-5.985-3.131-12.782
							c-10.396-6.724-51.759-37.681-51.759-37.681L365.527,391.664z"/>
						<path fill-rule="evenodd" clip-rule="evenodd" fill="#819A19" d="M479.177,358.875c0,0-12.228,34.34-13.521,37.693
							c-1.3,3.319-8.063,6.245-14.083,2.38c-5.901-3.916-42.099-31.43-42.099-31.43l10.956-4.219L479.177,358.875z"/>
						<path fill-rule="evenodd" clip-rule="evenodd" fill="#819A19" d="M212.011,370.142L171.412,397.7
							c0,0-9.981,7.515-15.375-4.396c-5.416-11.902-12.908-35.117-12.908-35.117l63.09,6.124L212.011,370.142z"/>
					</g>
					<g>
						<path fill="#FF7800" d="M311.504,69.113c-1.492,0-3.073,0.051-4.575,0.051c-3.338,7.433-5.17,15.59-5.17,24.227
							c0,32.568,26.441,59.008,59.071,59.008c26.618,0,49.154-17.633,56.499-41.87C389.429,84.902,352.341,69.113,311.504,69.113z"
							/>
						<path fill="#0071B2" d="M178.757,306.259c27.463,44.635,76.64,74.441,132.895,74.441c56.256,0,105.551-29.807,132.882-74.441
							H178.757z"/>
						<path fill="#FF7800" d="M467.457,224.93c0-4.263-0.205-8.493-0.567-12.72l-5.277,0.515l-14.258-14.537l-0.4-11.803
							l19.212,18.134c-0.318-2.071-0.593-3.97-0.96-5.973l-14.623-13.627l-0.68-3.226l11-1.399c-0.177-0.75-0.376-1.467-0.692-2.191
							l-8.711,1.29l7.271-5.49h0.103c-0.35-0.9-0.645-1.803-0.968-2.759l-0.504,0.417l-33.795-0.111l0,0l32.541-4.876
							c-0.334-0.853-0.731-1.751-1.058-2.619l-38.945,5.785l-38.102,46.55l-23.067-24.891l-1.417-1.204l-30.464-6.188l-2.179-2.054
							l-80.039,4.722l-67.153,11.562l-2.616,0.856l-15.198,22.72c-0.015,1.001-0.066,2.112-0.066,3.118
							c0,2.217,0.066,4.363,0.193,6.59l14.274-23.218l0.591-0.418v27.8l-14.592,1.164c2.127,28.032,11.644,53.928,26.679,75.838
							h2.904l-1.758-54.849h1.758v-5.611v-4.074L357.926,237.7v2.905l1.219,0.667l-2.695,62.167h-8.329v12.064h28.925l43.188-1.854
							v-10.211l-9.755-0.815l-6.197-55.887l1.557-0.99l-0.566-10.964l61.981-3.757C467.406,228.997,467.457,226.947,467.457,224.93z
							 M236.024,189.392l0.797,1.969l-1.958,2.708l-17.104-1.256L236.024,189.392z M213.814,193.563l19.854,2.202l-1.841,2.685
							l-20.296-4.481L213.814,193.563z M231.111,199.452l-0.066,0.092l-21.116-0.048l3.132-4.026L231.111,199.452z M206.803,194.871
							l2.121-0.403l2.26,0.713l-3.066,4.271h-1.315V194.871z M206.803,201.206h0.177l-0.177,0.241V201.206z M206.803,204.073
							l1.877-2.918l21.271-0.1l-0.296,0.392l-16.838,2.921l-6.014,0.458V204.073z M227.402,204.716l-8.069,11.314l-6.99-8.344
							l0.075-0.61L227.402,204.716z M186.899,234.428l-11.578,0.85l-1.279-30.946l0.695-0.916l17.599,23.923L186.899,234.428z
							 M192.514,233.925l2.276-3.316l2.157,2.966L192.514,233.925z M204.32,232.924l-2.86,0.352l-4.513-5.889l7.373-10.791V232.924z
							 M204.32,211.649l-9.678,12.687l-14.024-18.264l23.702,3.177V211.649z M204.32,204.716l-26.502-3.366l26.502-0.144V204.716z
							 M204.32,199.452l-21.582-0.148l21.582-3.975V199.452z M208.606,232.67l-1.803,0.106v-19.753l0.621-0.968l1.182-0.247V232.67z
							 M210.814,211.368l0.392-0.868l6.303,8.194l-7.196,10.256L210.814,211.368z M214.369,232.211l6.236-9.549l6.516,8.548
							L214.369,232.211z M238.905,230.305l-7.078,0.562l-9.346-11.105l10.137-15.888l6.287-1.002V230.305z M238.905,199.843
							l-4.115,0.706l4.115-6.333V199.843z M314.465,184.412l0.754,2.508l-24.69-0.536l-1.279-0.35l0,0L314.465,184.412z
							 M284.994,186.784l0.075,0.041l-0.4,0.752l3.259,0.107l15.086,4.464l-20.642-1.645L284.994,186.784z M298.169,193.304
							l-18.599,0.964l1.522-2.006L298.169,193.304z M242.481,192.148l0.208-0.698l4.957,6.853l-5.165,1.001V192.148z
							 M242.481,230.009v-27.71l7.226-1.178l10.07,13.86l-10.499,14.411L242.481,230.009z M252.966,200.645l19.542-3.159
							l-10.81,14.772L252.966,200.645z M254.746,228.997l7.522-10.66l6.989,9.559L254.746,228.997z M275.943,227.387l-2.601,0.163
							l-9.049-11.881l11.65-16.265V227.387z M275.943,192.761l-0.488,0.703l-24.721,4.266l-5.948-7.823l31.157,2.001V192.761z
							 M275.943,190.039l-25.127-1.955l25.127-1.259V190.039z M279.15,186.674l1.278-0.142l-1.278,1.7V186.674z M279.409,195.765
							l30.477-1.449l-16.373,20.263l-14.104-16.033V195.765z M279.999,227.095l-0.523-23.935l11.754,14.277l-7.514,9.247
							L279.999,227.095z M288.304,226.387l5.032-6.396l4.588,5.642L288.304,226.387z M310.566,224.631l-7.773,0.594l-7.219-8.19
							l14.992-19.306V224.631z M295.973,187.826l18.819,0.601l-3.141,3.836L295.973,187.826z M318.501,223.974l-4.936,0.403v-30.16
							l4.936-0.248V223.974z M318.501,192.2l-3.762,0.159l2.836-3.668l0.726,0.558l0.2-0.159V192.2z M349.85,195.469l0.576,16.391
							l-7.626-7.591l6.732-8.799H349.85z M340.503,202.007l-8.718-8.596l16.063-0.798L340.503,202.007z M341.989,190.903
							l-12.096,0.596l-2.867-2.808l7.516,0.199l0,0L341.989,190.903z M328.66,187.334l-3.141-0.048l-1.004-1.016L328.66,187.334z
							 M321.686,188.541l1.287,0.038l2.878,3.18l-4.165,0.148V188.541z M321.686,223.725v-29.896l5.765-0.266l10.622,11.703
							l-13.958,17.994l0.401,0.255L321.686,223.725z M328.245,223.212l11.932-15.526l10.56,11.519l0.126,2.253L328.245,223.212z
							 M375.369,219.44l-15.789,1.26l-0.783-0.643l-4.544-4.477l-1.115-19.904h0.422l1.417-0.455l20.526,24.131L375.369,219.44z
							 M382.158,218.946l33.913-42.488l0.231,39.831L382.158,218.946z M419.277,178.428l1.442-2.298l14.776,14.415l-15.67,17.606
							L419.277,178.428z M430.384,181.037l9.915,4.082l-2.852,3.069L430.384,181.037z M443.433,214.125l-23.526,1.866l18.367-22.686
							l5.159,5.032V214.125z M443.433,194.269l-3.43-3.366l2.839-3.93l-0.932-1.252l1.522,0.665V194.269z M444.768,181.151
							l-22.046-7.988l-0.192-0.458l32.015,1.108l-9.746,7.337H444.768z M447.819,213.767l-0.348-11.504l10.899,10.646
							L447.819,213.767z"/>
						<g>
							<path fill="#FF1A22" d="M169.905,197.84l3.539-1.255l66.932-11.667l80.808-4.772l3.124,2.415l30.411,6.081l1.603,2.165
								l21.295,22.76l37.09-45.741l39.57-5.631c-8.26-18.645-20.038-35.368-34.45-49.358c-8.262,24.733-31.478,42.579-58.996,42.579
								c-34.225,0-62.049-27.754-62.049-62.025c0-8.489,1.713-16.689,4.854-24.071c-80.068,4.008-144.31,68.593-147.671,148.869
								L169.905,197.84z"/>
							<polygon fill="#FF1A22" points="357.202,242.574 356.1,241.42 355.989,239.903 187.978,250.808 188.103,259.512 
								186.699,259.66 187.675,302.834 347.228,302.475 354.578,302.387 							"/>
							<path fill="#FF1A22" d="M406.926,236.932l0.723,10.115l-1.205,0.817l5.992,52.719l7.797,1.854l26.347,0.396
								c12.02-20.811,19.395-44.638,20.673-69.673L406.926,236.932z"/>
						</g>
					</g>
				</g>
			</g>
		</g>
	</g>
	<g>
		<path fill-rule="evenodd" clip-rule="evenodd" d="M587.825,535.142c0.005-13.037,10.585-23.61,23.613-23.6
			c13.044,0.011,23.614,10.592,23.599,23.62c-0.018,13.043-10.606,23.618-23.626,23.59
			C598.367,558.725,587.82,548.167,587.825,535.142z M592.62,535.152c0.003,10.386,8.418,18.801,18.806,18.809
			c10.388,0.005,18.822-8.43,18.816-18.819c-0.005-10.387-8.418-18.802-18.806-18.807
			C601.046,516.331,592.615,524.762,592.62,535.152z"/>
		<path fill-rule="evenodd" clip-rule="evenodd" d="M601.088,546.952c0-8.234,0-16.453,0-24.688c0.063-0.005,0.12-0.013,0.18-0.013
			c3.347,0.003,6.692-0.009,10.04,0.011c1.62,0.01,3.229,0.175,4.777,0.707c1.186,0.408,2.238,1.021,3.001,2.047
			c0.577,0.774,0.888,1.66,1.028,2.607c0.186,1.258,0.166,2.51-0.197,3.737c-0.515,1.748-1.694,2.896-3.317,3.632
			c-0.346,0.156-0.702,0.281-1.064,0.424c0.129,0.041,0.251,0.08,0.375,0.122c1.039,0.363,1.838,1.049,2.502,1.907
			c0.596,0.772,1.058,1.623,1.492,2.495c1.124,2.271,2.251,4.536,3.377,6.804c0.033,0.064,0.06,0.13,0.101,0.221
			c-0.09,0-0.154,0-0.219,0c-2.114,0-4.231-0.001-6.347,0.005c-0.16,0-0.236-0.05-0.304-0.188c-1.024-2.089-2.042-4.18-3.09-6.256
			c-0.255-0.509-0.577-0.987-0.911-1.449c-0.601-0.836-1.445-1.304-2.456-1.396c-0.853-0.078-1.713-0.061-2.598-0.085
			c0,3.14,0,6.241,0,9.357C605.322,546.952,603.218,546.952,601.088,546.952z M607.46,533.22c0.052,0.004,0.085,0.009,0.116,0.009
			c0.951,0,1.904,0.021,2.854-0.01c0.485-0.017,0.97-0.085,1.44-0.198c0.976-0.239,1.63-0.84,1.871-1.838
			c0.175-0.715,0.185-1.438,0.036-2.159c-0.197-0.938-0.725-1.603-1.664-1.884c-0.267-0.08-0.543-0.167-0.815-0.176
			c-1.264-0.042-2.528-0.056-3.791-0.08c-0.01,0-0.023,0.011-0.047,0.021C607.46,529,607.46,531.102,607.46,533.22z"/>
	</g>
</g>
</svg>
